<?xml version="1.0" standalone="no"?>
<!DOCTYPE svg PUBLIC "-//W3C//DTD SVG 1.1//EN" "http://www.w3.org/Graphics/SVG/1.1/DTD/svg11.dtd" >
<svg xmlns="http://www.w3.org/2000/svg">
<metadata></metadata>
<defs>
<font id="CanalLightRomainRegular" horiz-adv-x="0" >
<font-face units-per-em="2048" ascent="1638" descent="-410" />
<missing-glyph horiz-adv-x="575" />
<glyph />
<glyph />
<glyph unicode="&#xd;" />
<glyph unicode=" "  horiz-adv-x="575" />
<glyph unicode="&#x09;" horiz-adv-x="575" />
<glyph unicode="&#xa0;" horiz-adv-x="575" />
<glyph unicode="!" horiz-adv-x="536" d="M156 90q0 47 32.5 81t79.5 34t81 -33t34 -80t-34 -81t-81 -34t-79.5 33t-32.5 80zM184 506v1030h168v-1030h-168z" />
<glyph unicode="&#x22;" horiz-adv-x="696" d="M104 1536h150l-25 -532h-108zM440 1536h152l-27 -532h-108z" />
<glyph unicode="#" horiz-adv-x="1310" d="M59 487v138h263l40 323h-245v137h262l57 463l144 -20l-54 -443h324l57 463l144 -20l-56 -443h240v-137h-254l-39 -323h236v-138h-254l-62 -493l-143 20l59 473h-327l-62 -493l-143 20l59 473h-246zM469 625h324l38 323h-323z" />
<glyph unicode="$" horiz-adv-x="1214" d="M131 373l164 45q32 -99 60 -136q43 -55 106 -94q76 -41 150.5 -41t128 21.5t90.5 59.5q81 82 81 204q0 107 -70 177q-71 71 -213 129.5t-216 102.5t-119 93q-86 94 -86 230q0 212 192 327q60 33 170 57v92h183v-102q138 -37 208 -122q27 -34 68 -103l-133 -86 q-37 53 -57 77q-75 89 -196.5 89t-191 -63.5t-69.5 -155t63.5 -149.5t201 -115.5t216 -106.5t127.5 -103q94 -105 94 -273.5t-95 -294.5q-67 -91 -176 -124q-26 -8 -60 -18v-109h-183v101q-143 16 -198 51q-101 52 -171 161q-33 51 -69 179z" />
<glyph unicode="%" horiz-adv-x="1554" d="M4 1217q0 164 106 274q108 111 265 111q159 0 265 -110q105 -109 105 -274q0 -83 -28.5 -154t-77.5 -122q-107 -111 -262 -111q-156 0 -265 111q-108 109 -108 275zM162 1218q0 -105 60.5 -172t153.5 -67t153.5 68t60.5 172t-59.5 170.5t-153.5 66.5t-154.5 -66.5 t-60.5 -171.5zM260 41l895 1542l152 -88l-891 -1542zM815 317q0 164 106.5 276t264.5 112q156 0 265 -111q105 -107 105 -276q0 -83 -28.5 -152.5t-77.5 -121.5q-106 -112 -262 -112q-159 0 -266 111q-107 110 -107 274zM973 319q0 -104 60.5 -170.5t153.5 -66.5t153.5 66.5 t60.5 170.5t-59.5 171t-154.5 67t-154.5 -66.5t-59.5 -171.5z" />
<glyph unicode="&#x26;" horiz-adv-x="1425" d="M92 395q0 120 50 206q50 88 167 181q18 16 35.5 28.5t37 27t45.5 31t60 38.5q-86 112 -118.5 179t-32.5 144t25.5 136t69.5 102q95 93 239 93q137 0 232 -93t95 -223q0 -59 -13 -97t-43.5 -75t-50.5 -58.5t-43.5 -43t-52 -44t-67.5 -53.5l322 -411l190 178l107 -125 q-31 -29 -53.5 -48t-42 -37.5t-43 -41t-58.5 -55.5l260 -334h-211l-170 217q-101 -95 -145.5 -123t-98.5 -58q-119 -65 -231 -65t-193 33t-140 90q-128 121 -128 301zM262 427.5q0 -74.5 20.5 -127t57.5 -91.5q78 -82 199 -82q152 0 389 213l-342 442l-80 -55 q-139 -95 -191.5 -160t-52.5 -139.5zM496 1239q0 -52 16 -74l104 -149l2 -6l7 -2l4 -9q128 96 159 132t39.5 59.5t8.5 52.5q0 74 -48.5 122t-121 48t-121.5 -50t-49 -124z" />
<glyph unicode="'" horiz-adv-x="356" d="M104 1536h148l-23 -530h-108z" />
<glyph unicode="(" horiz-adv-x="503" d="M102 776q0 490 127 895q6 20 12.5 36.5t12.5 34.5t37 87l160 -66q-81 -223 -99 -300t-34 -172q-42 -239 -42 -511q0 -435 94 -748q26 -84 81 -235l-160 -67q-20 49 -33 80q-30 70 -54 155.5t-42.5 184t-31.5 202.5q-28 226 -28 424z" />
<glyph unicode=")" horiz-adv-x="503" d="M55 -203q93 256 122 412q50 276 50 571q0 301 -47 547q-28 162 -63 262.5t-62 173.5l158 66q23 -49 35 -80q153 -395 153 -1031q0 -349 -93 -723q-32 -127 -95 -265z" />
<glyph unicode="*" horiz-adv-x="2656" d="M539 199l571 569l-567 567l116 117l566 -567l567 567l117 -117l-568 -567l570 -569l-115 -115l-571 569l-570 -569z" />
<glyph unicode="+" horiz-adv-x="2318" d="M379 733v133q0 18 20 19h654q20 0 20 20v635q0 18 25 19h129q20 0 20 -19v-629q0 -27 29 -26h643q20 0 20 -19v-137q0 -16 -18 -16h-653q-20 0 -21 -19v-676q0 -18 -16 -18h-141q-16 0 -17 18v674q0 20 -20 21h-658q-16 0 -16 20z" />
<glyph unicode="," horiz-adv-x="391" d="M102 223h187l-31 -573h-125z" />
<glyph unicode="-" horiz-adv-x="370" d="M0 371v131h371v-131h-371z" />
<glyph unicode="." horiz-adv-x="448" d="M111 90q0 47 33.5 81t80.5 34t80 -34t33 -81t-33 -80t-80 -33t-80.5 33t-33.5 80z" />
<glyph unicode="/" horiz-adv-x="1236" d="M88 -209l977 1978h152l-967 -1978h-162z" />
<glyph unicode="0" horiz-adv-x="1419" d="M160 756q0 344 158 574q73 108 174.5 168.5t219.5 60.5t217 -60.5t173 -166.5q158 -225 158 -562t-158 -566q-74 -108 -175.5 -168.5t-217 -60.5t-216 60.5t-173.5 166.5q-160 228 -160 554zM328 772q0 -278 108 -458q51 -85 122 -133t152 -48t149.5 49t119.5 135t81 202 t30 250t-29 250t-80 202q-108 182 -272 182q-80 0 -150 -49t-121 -134q-110 -183 -110 -448z" />
<glyph unicode="1" horiz-adv-x="688" d="M123 1376v160h336v-1536h-172v1376h-164z" />
<glyph unicode="2" horiz-adv-x="1284" d="M129 0l559 647q201 234 244 347q22 55 22 115t-23.5 114.5t-65.5 94.5q-89 85 -218 85q-80 0 -148.5 -37t-100.5 -85t-42 -85t-16 -109h-172q11 120 34.5 181.5t66 116.5t101.5 93q124 81 275 81q202 0 339 -131q138 -132 138 -324q0 -167 -121 -330q-94 -128 -208 -256 l-316 -358h645v-160h-993z" />
<glyph unicode="3" horiz-adv-x="1222" d="M129 397h166q17 -99 54.5 -149.5t104 -82.5t134 -32t123 23.5t95.5 65.5q87 91 87 218q0 88 -41 158q-59 100 -184 124q-33 7 -103 9v148q109 6 136 17q95 38 132 106.5t37 140.5q0 115 -73.5 187.5t-190.5 72.5q-142 0 -211 -98q-30 -48 -49 -148h-168 q15 110 36.5 154.5t35.5 68.5q53 86 145 132.5t198.5 46.5t185.5 -31t137 -86q122 -119 122 -295q0 -234 -196 -340q104 -49 161.5 -146.5t57.5 -211t-36 -197.5t-99 -146q-136 -131 -340 -131q-218 0 -357 152q-47 55 -69.5 114.5t-30.5 155.5z" />
<glyph unicode="4" horiz-adv-x="1372" d="M72 258l952 1364v-1214h188v-150h-188v-258h-164v258h-788zM362 408h498v708z" />
<glyph unicode="5" horiz-adv-x="1355" d="M160 248l137 98q53 -84 102 -125q105 -88 244 -88q160 0 271 112q110 112 110 277q0 164 -108 272q-111 111 -269 111q-76 0 -141.5 -22.5t-155.5 -81.5l221 735h613v-160h-492l-100 -327q58 8 86 8q223 0 370 -151q146 -150 146 -382q0 -234 -161 -393 q-158 -156 -402 -156q-303 0 -471 273z" />
<glyph unicode="6" horiz-adv-x="1380" d="M160 494q0 178 127 354l524 727l127 -96l-352 -492q82 21 162.5 21t170 -40t155.5 -108q145 -149 145 -358q0 -217 -156 -373q-154 -154 -371 -154q-219 0 -376 153q-156 153 -156 366zM330 496q0 -149 106 -256q105 -107 254 -107q147 0 254 105q107 106 107 255 q0 75 -28 141t-77 116q-105 106 -256 106q-149 0 -254 -106q-106 -108 -106 -254z" />
<glyph unicode="7" horiz-adv-x="1214" d="M51 53l871 1323h-838v160h1130l-1028 -1573z" />
<glyph unicode="8" horiz-adv-x="1251" d="M160 424q0 260 229 375q-188 112 -188 338q0 179 123.5 300.5t306.5 121.5q185 0 307 -121q123 -121 123 -301q0 -104 -52.5 -195.5t-140.5 -142.5q104 -51 164 -148.5t60 -209t-35 -194.5t-97 -143q-130 -129 -329 -129q-202 0 -337 129q-134 128 -134 320zM330 432 q0 -125 87 -212t210 -87t210 87q85 85 85 208q0 119 -88 208q-85 87 -209 87q-121 0 -208 -87t-87 -204zM362 1139q0 -115 78 -193t191 -78q111 0 187 78q79 81 79 189q0 112 -78 190t-190 78q-110 0 -187 -79q-80 -81 -80 -185z" />
<glyph unicode="9" horiz-adv-x="1382" d="M160 1036q0 216 156 370q154 153 372 153q219 0 376 -153t157 -364q0 -174 -129 -354l-523 -725l-129 96l355 492q-82 -21 -163 -21t-171 39t-157 107q-144 149 -144 360zM330 1047q0 -153 104 -259q105 -106 256 -106q149 0 254 106q107 109 107 254q0 148 -105 254 q-105 107 -256 107q-147 0 -254 -105q-106 -105 -106 -251z" />
<glyph unicode=":" horiz-adv-x="595" d="M184 90q0 47 33 81t80 34t81 -34t34 -81t-33 -80t-80 -33t-81 33t-34 80zM184 864q0 47 34 81t81 34t80 -33t33 -80t-33 -79.5t-80 -32.5t-81 31.5t-34 78.5z" />
<glyph unicode=";" horiz-adv-x="411" d="M184 864q0 47 34 81t81 34t80 -33t33 -80t-34 -79.5t-81 -32.5t-80 31.5t-33 78.5zM203 223h186l-31 -573h-125z" />
<glyph unicode="&#x3c;" horiz-adv-x="1650" d="M100 768l1405 819v-1638zM414 768q41 -23 113.5 -66t161.5 -95t187.5 -109.5t188.5 -109.5q228 -132 278 -163v1086q-74 -45 -221 -130t-245.5 -142.5t-187.5 -109.5t-161.5 -94t-113.5 -67z" />
<glyph unicode="=" horiz-adv-x="2207" d="M496 553v164h1216v-164h-1216zM496 881v163h1216v-163h-1216z" />
<glyph unicode="&#x3e;" horiz-adv-x="1650" d="M145 -49v1638l1405 -819zM307 227q56 34 212.5 124.5t253.5 148t187.5 110t163 95.5t113.5 65q-41 23 -113.5 66t-163 95t-187.5 109.5t-187 109.5q-223 129 -279 163v-1086z" />
<glyph unicode="?" horiz-adv-x="905" d="M76 1221q0 59 27.5 123.5t76.5 110.5q105 99 266 99q157 0 262 -104q105 -103 105 -260q0 -92 -40 -170q-54 -104 -148 -148q-23 -10 -70 -26l-29 -8v-332h-166v448q109 6 160 38q21 12 36 24t17 13t7 5q66 59 65.5 152.5t-58 152t-146.5 58.5t-146 -56.5t-57 -142.5 q0 -33 14 -94h-166q-10 58 -10 117zM332 92q0 47 32.5 80t79.5 33t81 -33t34 -80t-32.5 -81t-80.5 -34q-47 0 -80.5 34t-33.5 81z" />
<glyph unicode="@" horiz-adv-x="1859" d="M164 508q0 137 61.5 282.5t169 252t254 168t310.5 61.5t297 -52.5t231 -144.5t153.5 -217t55.5 -255t-30 -230.5t-80 -176.5q-108 -163 -261 -163q-123 0 -166 135q-72 -78 -134 -108.5t-147 -30.5t-156 31.5t-123 87.5q-110 117 -110 298q0 194 123 323q125 130 308 130 q90 0 152.5 -30.5t117.5 -100.5l14 111h150l-62 -523q-8 -58 -8 -104q0 -74 62 -74q80 0 146 121q64 117 64 257t-44 242.5t-122 177.5q-165 157 -427 157q-272 0 -461 -189t-189 -465q0 -182 85 -332.5t233 -236.5q145 -86 364 -86q185 0 240 11q94 19 264 116l49 -137 l-148 -64q-128 -49 -226.5 -58t-176.5 -9q-383 0 -610 233q-142 146 -197 354q-26 101 -26 238zM664 440q0 -108 64 -185t155 -77q111 0 193 98q83 100 83 230v14q0 102 -64.5 166t-162.5 64q-114 0 -192 -88q-76 -88 -76 -222z" />
<glyph unicode="A" horiz-adv-x="1429" d="M16 0l707 1610l690 -1610h-188l-181 434h-657l-184 -434h-187zM457 594h520l-256 616z" />
<glyph unicode="B" horiz-adv-x="1159" d="M162 0v1536h278q231 0 346 -96q66 -53 105 -139.5t39 -201t-72 -204.5q-25 -35 -80 -74q135 -41 212 -143.5t77 -245.5q0 -199 -154 -328q-70 -57 -153.5 -80.5t-214.5 -23.5h-383zM334 160h194q152 0 220 34q149 77 149 250q0 66 -35 127.5t-88 90.5q-93 51 -268 51 h-172v-553zM334 858h129q86 0 132 12.5t85 47.5q82 71 82 199t-82 202q-64 57 -213 57h-133v-518z" />
<glyph unicode="C" horiz-adv-x="1441" d="M92 766q0 164 63.5 309.5t173 254t257 171t313.5 62.5q209 0 408 -121q29 -16 36 -26.5t7 -37.5v-153q0 -16 -9 -17q-6 0 -26.5 24t-70.5 57.5t-110 58.5q-133 53 -253.5 53t-233 -50.5t-197.5 -137.5t-134.5 -203.5t-49.5 -246.5t49.5 -245t134.5 -200 q185 -185 439 -185q227 0 418 160q6 6 10 9t11 9t14 6t8 -14v-168q0 -12 -6.5 -18t-67.5 -45t-171 -69t-245 -30t-280.5 62.5t-253 170t-171 252t-63.5 308.5z" />
<glyph unicode="D" horiz-adv-x="1398" d="M162 0v1536h315q186 0 319.5 -43t253 -144.5t188.5 -251t69 -329.5q0 -366 -273 -590q-170 -140 -389 -168q-78 -10 -170 -10h-313zM334 160h149q296 0 472 166q178 168 178 443q0 138 -46.5 249.5t-131.5 191.5q-176 166 -472 166h-149v-1216z" />
<glyph unicode="E" horiz-adv-x="1048" d="M162 0v1536h794v-160h-622v-456h606v-160h-606v-600h622v-160h-794z" />
<glyph unicode="F" horiz-adv-x="937" d="M162 0v1536h698v-160h-526v-456h510v-160h-510v-760h-172z" />
<glyph unicode="G" horiz-adv-x="1697" d="M92 762q0 164 63.5 309.5t173 253t258 168.5t315.5 61q270 0 466 -162q69 -56 172 -171l-129 -115q-115 145 -191 192q-149 94 -300 94q-1 1 -3 1q-148 0 -263 -49q-117 -50 -203 -136t-136.5 -201.5t-50.5 -246.5t49 -245t133 -200t197 -136t211.5 -50t168 18.5 t133.5 53.5q151 83 228 233q24 48 28.5 85.5t8.5 86.5h-456v160h641v-41q0 -162 -26 -249q-43 -143 -118 -234q-106 -131 -258.5 -203t-319.5 -72t-310.5 62.5t-250 171t-169 253t-62.5 308.5z" />
<glyph unicode="H" horiz-adv-x="1452" d="M162 0v1536h172v-625h784v625h172v-1536h-172v752h-784v-752h-172z" />
<glyph unicode="I" horiz-adv-x="495" d="M162 0v1536h172v-1536h-172z" />
<glyph unicode="J" horiz-adv-x="778" d="M0 -45l96 133q55 -51 92 -68.5t93 -17.5t94.5 37t53.5 94t15 162v1241h172v-1241q0 -199 -55 -293q-41 -74 -116.5 -118t-156.5 -44t-145.5 27t-142.5 88z" />
<glyph unicode="K" horiz-adv-x="1255" d="M162 0v1536h172v-659l653 659h232l-721 -717l743 -819h-235l-629 705l-43 -43v-662h-172z" />
<glyph unicode="L" horiz-adv-x="798" d="M162 0v1536h172v-1376h422v-160h-594z" />
<glyph unicode="M" horiz-adv-x="1869" d="M92 0l254 1624l590 -1298l604 1298l238 -1624h-176l-144 1069l-524 -1132l-516 1132l-150 -1069h-176z" />
<glyph unicode="N" horiz-adv-x="1691" d="M162 0v1599l1196 -1253v1190h172v-1606l-1196 1254v-1184h-172z" />
<glyph unicode="O" horiz-adv-x="1783" d="M92 756q0 164 62.5 311t170 258t253 174.5t310.5 63.5t311.5 -62.5t256 -171t173 -254t63.5 -308.5t-63.5 -307.5t-172 -253t-254 -171t-309.5 -62.5t-309.5 62.5t-255 168t-173 247t-63.5 305.5zM266 774q0 -267 181 -454q182 -187 440 -187q262 0 446 184 q86 86 135.5 202t49.5 248t-49.5 247.5t-133.5 202t-198.5 135.5t-243.5 49q-259 0 -442 -185q-185 -186 -185 -442z" />
<glyph unicode="P" horiz-adv-x="1019" d="M162 0v1536h278q143 0 230.5 -24.5t155.5 -83.5q143 -121 143 -323t-129 -316.5t-357 -114.5h-149v-674h-172zM334 829h139q158 0 243 72t85 205q0 270 -340 270h-127v-547z" />
<glyph unicode="Q" horiz-adv-x="1779" d="M92 766q0 164 62.5 309.5t171 254t254 171t311.5 62.5t311.5 -63.5t253 -174.5t170 -258t62.5 -303q0 -241 -106 -400q-44 -64 -114 -145l127 -121l-116 -112l-129 137q-98 -66 -147 -84q-172 -64 -330 -64q-155 0 -297 61q-294 127 -422 422q-62 144 -62 308zM264 766 q0 -266 180 -448q84 -85 198 -134t230 -49q182 0 312 80q20 12 47 29l-191 190l117 117l191 -209q168 191 168 425q0 126 -48.5 243.5t-132.5 205.5q-178 185 -446 185q-263 0 -444 -185q-181 -184 -181 -450z" />
<glyph unicode="R" horiz-adv-x="1056" d="M162 0v1536h248q133 0 217 -18.5t151 -65.5q80 -53 125 -145.5t45 -190.5t-27.5 -172t-77.5 -128q-108 -116 -282 -128l490 -688h-211l-463 674h-43v-674h-172zM334 825h106q164 0 251 73t87 214.5t-110 214.5q-74 49 -232 49h-102v-551z" />
<glyph unicode="S" horiz-adv-x="1146" d="M92 369l166 47q14 -63 26.5 -94t37.5 -64q41 -59 107.5 -92t137 -33t127 23.5t96.5 64.5q91 92 91 215q0 95 -57 159q-59 65 -203 130l-140 63q-166 76 -238.5 163t-72.5 193.5t33 179.5t90 126q122 113 309 113q258 0 395 -240l-135 -90q-51 77 -80 102q-76 66 -184 66 t-181 -69t-73 -155t50 -140t167 -105l146 -64q188 -84 267 -180q81 -98 81 -257q0 -87 -38 -173t-103 -150q-140 -135 -335.5 -135t-318.5 102.5t-168 293.5z" />
<glyph unicode="T" horiz-adv-x="946" d="M16 1376v160h916v-160h-373v-1376h-172v1376h-371z" />
<glyph unicode="U" horiz-adv-x="1415" d="M162 549v987h172v-942q0 -177 26 -244q44 -109 160 -170q90 -47 189 -47q98 0 188 47q149 78 176 230q10 56 10 184v942h172v-987q0 -127 -22.5 -210t-88 -168t-184 -141.5t-251.5 -56.5t-252 57q-263 124 -290 403q-5 52 -5 116z" />
<glyph unicode="V" horiz-adv-x="1275" d="M16 1536h187l436 -1171l436 1171h187l-625 -1628z" />
<glyph unicode="W" horiz-adv-x="2201" d="M16 1536h187l409 -1151l482 1229l454 -1231l451 1153h186l-643 -1616l-452 1229l-484 -1229z" />
<glyph unicode="X" horiz-adv-x="1110" d="M16 0l453 795l-414 741h195l317 -578l326 578h197l-424 -741l444 -795h-190l-355 631l-356 -631h-193z" />
<glyph unicode="Y" horiz-adv-x="1185" d="M0 1536h199l391 -686l397 686h199l-512 -874v-662h-172v662z" />
<glyph unicode="Z" horiz-adv-x="1183" d="M31 0l837 1376h-729v160h1014l-838 -1376h818v-160h-1102z" />
<glyph unicode="[" horiz-adv-x="663" d="M184 -406v2087h387v-155h-217v-1776h217v-156h-387z" />
<glyph unicode="\" horiz-adv-x="1046" d="M-135 1769h149l977 -1978h-162z" />
<glyph unicode="]" horiz-adv-x="663" d="M92 -250h219v1776h-219v155h387v-2087h-387v156z" />
<glyph unicode="^" horiz-adv-x="1067" d="M14 838l406 702h227l406 -702h-187l-334 565l-331 -565h-187z" />
<glyph unicode="_" horiz-adv-x="698" d="M164 776v131h371v-131h-371z" />
<glyph unicode="`" horiz-adv-x="653" d="M219 1458l170 76l244 -334l-103 -55z" />
<glyph unicode="a" horiz-adv-x="1165" d="M84 475q0 212 129 351q130 139 330 139q104 0 183 -37t151 -119v133h163v-942h-163v131q-72 -84 -150 -121t-180 -37t-186.5 38t-145.5 105q-131 142 -131 359zM252 477q0 -155 89 -257q88 -101 226 -101q143 0 231 98q89 100 89 256q0 155 -89 250q-90 96 -231 96 q-135 0 -224 -97q-91 -100 -91 -245z" />
<glyph unicode="b" horiz-adv-x="1165" d="M125 0v1536h166v-727q72 80 150.5 118t180 38t185.5 -37t145 -102q129 -137 129 -353t-131 -357q-131 -143 -330.5 -143t-328.5 158v-131h-166zM279 471q0 -156 90 -254t229 -98q132 0 225 99q90 96 90 250q0 75 -23.5 139.5t-64.5 110.5q-88 99 -223 99q-141 0 -233 -96 q-90 -94 -90 -250z" />
<glyph unicode="c" horiz-adv-x="980" d="M84 467q0 212 148 353q151 145 362 145q163 0 297 -91v-212q-37 41 -76 74.5t-99.5 57t-129 23.5t-131 -26.5t-107.5 -73.5q-96 -100 -96 -248q0 -150 96 -250t240 -100q76 0 121 20.5t64.5 31.5t37.5 27q39 33 86 87v-213q-84 -55 -152.5 -77t-163.5 -22t-188.5 38 t-162.5 105q-146 142 -146 351z" />
<glyph unicode="d" horiz-adv-x="1165" d="M84 473q0 214 129 353q130 139 327 139t337 -156v727h163v-1536h-163v131q-131 -158 -332 -158q-199 0 -330 143q-131 142 -131 357zM252 477q0 -155 89 -257q88 -101 226 -101q143 0 231 98q89 100 89 255q0 77 -23.5 140.5t-65.5 108.5q-90 96 -231 96q-135 0 -224 -97 q-91 -100 -91 -243z" />
<glyph unicode="e" horiz-adv-x="1087" d="M84 467q0 220 129 359q130 139 334 139q206 0 331 -137q126 -136 126 -359v-33h-746q6 -143 89 -230t214 -87t227 100q16 18 34 45l34 51l137 -75q-35 -59 -57.5 -89t-58.5 -61q-133 -117 -322 -117q-212 0 -340 137q-131 141 -131 357zM268 573h563q-23 111 -99.5 177.5 t-180.5 66.5q-164 0 -247 -145q-25 -45 -36 -99z" />
<glyph unicode="f" horiz-adv-x="530" d="M25 793v149h92v256q0 115 25.5 184.5t95 111.5t142 42t140.5 -20v-162q-61 22 -111 22t-80 -23t-39 -62.5t-9 -129.5v-219h239v-149h-239v-793h-164v793h-92z" />
<glyph unicode="g" horiz-adv-x="1167" d="M84 467q0 216 131 357q132 141 330.5 141t331.5 -156v133h165v-938q0 -209 -48 -301q-74 -138 -209 -201q-97 -45 -208.5 -45t-195.5 31t-145 87q-126 117 -134 316h162q6 -63 14.5 -95t30.5 -64q39 -59 108.5 -93t151.5 -34q307 0 308 372v154q-138 -158 -338 -158 q-192 0 -324 141q-131 141 -131 353zM252 471q0 -158 87 -253q89 -97 224 -97q144 0 233 97t89 254q0 77 -23.5 140.5t-66.5 109.5q-91 97 -230 97q-134 0 -224 -99q-89 -97 -89 -249z" />
<glyph unicode="h" horiz-adv-x="1017" d="M125 0v1536h166v-705q59 72 122.5 103t149.5 31t160 -35t110 -87t48 -108.5t12 -150.5v-584h-164v573q0 115 -27 159q-52 85 -170 85q-150 0 -204 -110q-37 -66 -37 -236v-471h-166z" />
<glyph unicode="i" horiz-adv-x="440" d="M102 1297q0 48 35 82t83 34t83 -34t35 -82t-35 -81.5t-83 -33.5t-83 33.5t-35 81.5zM137 0v942h166v-942h-166z" />
<glyph unicode="j" horiz-adv-x="440" d="M102 1297q0 48 35 82t83 34t83 -34t35 -82t-35 -81.5t-83 -33.5t-83 33.5t-35 81.5zM137 -530v1472h166v-1472h-166z" />
<glyph unicode="k" horiz-adv-x="935" d="M125 0v1536h166v-940l346 346h219l-410 -401l486 -541h-215l-385 428l-41 -41v-387h-166z" />
<glyph unicode="l" horiz-adv-x="415" d="M125 0v1536h166v-1536h-166z" />
<glyph unicode="m" horiz-adv-x="1503" d="M125 0v942h166v-100q51 66 104.5 94.5t130.5 28.5q180 0 262 -152q90 152 281 152q82 0 150.5 -34t102.5 -86t45 -106.5t11 -140.5v-598h-164v571q0 131 -39.5 189.5t-132.5 58.5q-205 0 -204 -297v-522h-164v559q0 260 -176 260q-53 0 -101.5 -27.5t-77 -85 t-28.5 -194.5v-512h-166z" />
<glyph unicode="n" horiz-adv-x="1017" d="M125 0v942h166v-115q61 78 122.5 108t149.5 30t162 -35t108 -86t47 -109.5t13 -150.5v-584h-166v557q0 76 -6 115t-25 69q-49 78 -172 78t-178 -82t-55 -266v-471h-166z" />
<glyph unicode="o" horiz-adv-x="1179" d="M84 461q0 213 145.5 358.5t356.5 145.5q218 0 364 -143q146 -145 146 -353t-146 -353q-146 -143 -360 -143q-211 0 -358 143q-148 144 -148 345zM252 473q0 -156 94 -254q96 -100 240 -100q151 0 246 98q96 100 96 252q0 153 -96 251q-96 97 -244 97q-145 0 -240 -97 q-96 -98 -96 -247z" />
<glyph unicode="p" horiz-adv-x="1165" d="M125 -539v1481h166l-2 -133q72 82 150.5 119t180 37t185.5 -38t145.5 -104.5t96 -157.5t34.5 -198.5t-33.5 -198t-95.5 -156.5q-130 -139 -327 -139q-104 0 -183.5 37t-150.5 121v-670h-166zM279 465q0 -153 90 -249q91 -97 231 -97q135 0 224 97t89 247 q0 76 -23.5 142.5t-64.5 113.5q-87 100 -225 100q-140 0 -231 -100q-90 -98 -90 -254z" />
<glyph unicode="q" horiz-adv-x="1165" d="M84 465q0 215 131 357q131 143 330 143t332 -156v133h163v-1481h-163v670q-72 -84 -152 -121t-181 -37t-185.5 37t-144.5 102q-130 142 -130 353zM252 471q0 -151 88 -252q87 -100 223 -100q143 0 234 97q90 96 90 251q0 156 -89 253q-90 99 -229 99q-134 0 -227 -99 q-90 -96 -90 -249z" />
<glyph unicode="r" horiz-adv-x="692" d="M125 0v942h166v-100q43 52 76 78q53 45 139 45q43 0 71.5 -7.5t75.5 -31.5l-78 -148q-51 33 -95 33t-80 -18t-55 -41t-31 -58q-23 -63 -23 -198v-496h-166z" />
<glyph unicode="s" horiz-adv-x="784" d="M61 213l144 59q28 -54 49 -84q53 -70 132 -70h1q80 0 125 42.5t45 107.5q0 29 -15 60t-43 50t-97 48q-135 57 -193 98q-84 59 -84 176q0 113 80 189t198 76q70 0 126.5 -29t81 -56.5t55.5 -86.5l-138 -70q-47 94 -131 94q-47 0 -81.5 -30.5t-34.5 -72.5t31.5 -70t98 -55 t94 -39.5t47.5 -21.5q41 -21 66 -41q105 -73 105 -206t-93.5 -220.5t-237.5 -87.5t-247 101q-29 29 -45 56.5t-39 82.5z" />
<glyph unicode="t" horiz-adv-x="491" d="M47 793v149h100v340h164v-340h170v-149h-170v-793h-164v793h-100z" />
<glyph unicode="u" horiz-adv-x="1011" d="M125 375v567h166v-549q0 -125 26.5 -173t76.5 -74.5t112 -26.5q61 0 110.5 26.5t69.5 63.5q35 65 35 184v549h164v-567q0 -106 -18.5 -169t-69.5 -119q-104 -114 -291 -114q-184 0 -293 117q-49 53 -68.5 115.5t-19.5 169.5z" />
<glyph unicode="v" horiz-adv-x="937" d="M0 942h184l287 -633l283 633h184l-469 -1003z" />
<glyph unicode="w" horiz-adv-x="1536" d="M0 942h184l285 -637l297 711l299 -711l287 637h184l-475 -1008l-295 703l-297 -703z" />
<glyph unicode="x" horiz-adv-x="1009" d="M0 0l410 502l-351 440h201l250 -321l250 321h203l-351 -440l398 -502h-197l-303 383l-305 -383h-205z" />
<glyph unicode="y" horiz-adv-x="1021" d="M0 942h190l336 -674l312 674h184l-709 -1481h-184l311 629z" />
<glyph unicode="z" horiz-adv-x="1112" d="M47 0l690 793h-563v149h891l-688 -792h659v-150h-989z" />
<glyph unicode="{" horiz-adv-x="759" d="M184 573v138q72 18 102.5 64t30.5 138v451q0 170 68 243.5t223 73.5l60 -2v-145l-19 2q-100 0 -133 -38q-31 -36 -31 -163v-432q0 -153 -60 -211q-26 -26 -81 -55q41 -23 62 -41q79 -70 79 -231v-463l4 -60q11 -53 28 -67q33 -27 54 -31t34 -4h63v-146h-62 q-156 0 -222.5 78t-66.5 262v424q0 98 -29.5 147.5t-103.5 67.5z" />
<glyph unicode="|" horiz-adv-x="415" d="M125 0v1536h166v-1536h-166z" />
<glyph unicode="}" horiz-adv-x="759" d="M92 -260h53t37 4q38 11 57 29q37 34 37 168v430q0 148 60 213q24 26 80 55q-41 23 -62 40q-78 65 -78 232v416l-2 45q-2 23 -2 36t-3 30q-8 44 -25 60q-35 33 -88 37q-15 1 -45 1h-19v143q29 2 40 2h22q158 0 223 -77.5t65 -262.5v-426q0 -98 31 -146t102 -69v-135 q-72 -18 -102.5 -65t-30.5 -140v-450q0 -168 -67.5 -242t-222.5 -74h-22q-13 0 -38 3v143z" />
<glyph unicode="~" horiz-adv-x="1521" d="M207 1405q26 55 49 90q53 92 117.5 134t131 42t124 -17.5t123 -47t93 -42t66.5 -28t99 -15t105.5 33t96.5 120.5l103 -59q-45 -92 -80 -131q-47 -59 -113.5 -94t-138.5 -35q-80 0 -192 51l-129 59q-84 41 -147.5 41t-111 -37.5t-96.5 -128.5z" />
<glyph unicode="&#xa1;" horiz-adv-x="1804" d="M102 782l813 813l316 -321l-328 -273h799v-462h-799l328 -269l-316 -319z" />
<glyph unicode="&#xa2;" horiz-adv-x="8138" d="M164 733q0 178 58.5 331t162.5 263.5t247.5 173t289 62.5t248 -29t179 -76t99 -69.5t22.5 -40.5v-5l-16 -135q0 -18 -9 -18t-22 16q-80 92 -208 144.5t-264 52.5t-247.5 -50t-192.5 -141q-171 -191 -171 -483q0 -280 156 -439q155 -159 432 -159q127 0 200 27 q133 50 179 96q18 18 29 18t12 -16l-19 -150q0 -18 -7 -27t-91 -43q-161 -65 -325.5 -65t-302.5 54.5t-235 154.5q-204 207 -204 553zM1397 14q0 6 2 9l821 1564q6 18 14 19q10 0 15 -15l456 -1562q2 -5 2 -13q0 -16 -22 -16h-123q-20 0 -31 25l-110 403h-625l-209 -408 q-14 -20 -37 -20h-137q-16 0 -16 14zM1878 586h494l-174 628zM2857 20v3l188 1531q4 23 17 23q6 0 14 -4l942 -1233l144 1167q2 18 8 23.5t22 5.5h119q23 0 23 -18l-2 -2l-187 -1536q-4 -31 -13 -31t-22 16l-940 1225l-145 -1155q-4 -35 -31 -35h-117q-20 0 -20 20zM4303 14 l2 9l821 1564q10 18 14 19q10 0 15 -15l457 -1562q2 -5 2 -13q0 -16 -23 -16h-123q-23 0 -29 25l-112 403h-625l-209 -408q-12 -20 -37 -20h-135q-18 0 -18 14zM4784 586h498l-174 628zM5775 23v4l183 1480q4 29 30 29h113q20 0 20 -20v-5l-161 -1353h444q23 0 23 -21v-2 l-17 -108q-2 -27 -30 -27h-584q-20 0 -21 23zM6416 739v123q0 18 21 19h657q20 0 21 20v639q0 18 22 19h121q20 0 21 -19v-633q0 -27 28 -26h647q20 0 21 -19v-129q0 -16 -16 -16h-660q-20 0 -20 -19v-680q0 -18 -17 -18h-131q-16 0 -16 18v678q0 20 -21 21h-663 q-14 0 -15 22z" />
<glyph unicode="&#xa3;" horiz-adv-x="1325" d="M47 59q47 70 91 111q83 78 206 86q66 104 66 193q0 48 -15 96h-258v131h201l-66 131q-72 149 -83 183q-17 53 -17 140.5t35 166.5t97 137q130 125 323 125q197 0 316 -125q120 -125 128 -332l-168 -45q-5 92 -29 168t-89.5 122t-141 46t-127 -21.5t-89.5 -58.5 q-81 -79 -81 -197q0 -83 48 -180q12 -23 24 -48q38 -80 65 -127.5t30 -55t6 -13.5t7 -16h289v-131h-244q15 -47 15 -90q0 -98 -68 -222l29 -10q79 -24 112 -35.5t58.5 -20.5t44.5 -15q34 -9 66 -9t64 15.5t56.5 44t61.5 92.5l139 -82q-41 -81 -88 -133q-98 -104 -230 -105 q-92 0 -253 60q-136 50 -166.5 53.5t-49.5 3.5q-88 0 -146 -72q-13 -16 -36 -49z" />
<glyph unicode="&#xa5;" horiz-adv-x="1652" d="M145 539v166h158q-6 65 4 167h-162v168h205q80 235 302 386q214 145 466 145q127 0 228.5 -39t205.5 -107l-22 -186q-189 168 -432 168q-181 0 -334 -103q-157 -105 -225 -264h966l-20 -168h-1000q-8 -41 -8 -82.5t2 -84.5h985l-20 -166h-926q61 -178 230 -297 q161 -113 354 -113q141 0 301 78l-23 -191q-278 -94 -534 -5q-244 85 -394 297q-75 106 -118 231h-189z" />
<glyph unicode="&#xa8;" horiz-adv-x="1040" d="M115 1267q0 48 33.5 81.5t81.5 33.5t83 -33.5t35 -80.5t-34.5 -81t-82.5 -34q-47 0 -81.5 33t-34.5 81zM516 1267q0 48 34 81.5t82 33.5t82 -33.5t34 -80.5t-34 -81t-81 -34t-82 33t-35 81z" />
<glyph unicode="&#xa9;" horiz-adv-x="1751" d="M78 767q0 163 62.5 307.5t168 253t247.5 172t306 63.5t311.5 -61.5t256 -168t172 -251t63.5 -309.5t-61.5 -311.5t-169 -255t-253 -171t-310.5 -62.5t-309 62.5t-251.5 170t-170 253t-62.5 308.5zM207 773q0 -138 52 -261t141 -214t211 -143.5t260 -52.5t259 52.5 t211.5 143.5t142.5 212t52 257t-52 258t-141.5 212t-208 143.5t-256.5 53.5t-261 -52.5t-214.5 -141.5t-143.5 -209t-52 -258zM426 760q0 192 140.5 332.5t334.5 140.5q159 0 265 -82q47 -37 59 -49v-197l-41 49q-37 43 -69 73t-93 53.5t-126 23.5t-126 -28.5t-108 -75.5 q-103 -103 -103 -244q0 -139 103 -240q103 -102 241 -102q137 0 241 101q17 17 40 42l41 47v-194q-141 -123 -320 -123q-196 0 -337 140q-142 140 -142 333z" />
<glyph unicode="&#xaa;" horiz-adv-x="1804" d="M102 539v462h799l-326 273l314 321l813 -813l-813 -831l-314 319l326 269h-799z" />
<glyph unicode="&#xab;" horiz-adv-x="1130" d="M72 492l342 432l108 -84l-274 -348l274 -338l-108 -86zM414 492l344 432l106 -84l-274 -348l274 -338l-106 -86z" />
<glyph unicode="&#xac;" horiz-adv-x="1153" d="M78 453v161h997v-614h-172v453h-825z" />
<glyph unicode="&#xae;" horiz-adv-x="1751" d="M78 767q0 163 62.5 307.5t168 253t247.5 172t306 63.5t311.5 -61.5t256 -168t172 -251t63.5 -309.5t-61.5 -311.5t-169 -255t-253 -171t-310.5 -62.5t-309 62.5t-251.5 170t-170 253t-62.5 308.5zM207 773q0 -138 52 -261t141 -214t211 -143.5t260 -52.5t259 52.5 t211.5 143.5t142.5 212t52 257t-52 258t-141.5 212t-208 143.5t-256.5 53.5t-261 -52.5t-214.5 -141.5t-143.5 -209t-52 -258zM670 299v922h157q147 0 225 -67t78 -183.5t-55 -182t-155 -81.5l280 -408h-162l-235 348l-2 -348h-131zM801 825h43q153 1 153 136 q0 70 -39.5 101.5t-126.5 31.5h-30v-269z" />
<glyph unicode="&#xaf;" horiz-adv-x="1077" d="M119 1184v137h696v-137h-696z" />
<glyph unicode="&#xb1;" />
<glyph unicode="&#xb4;" horiz-adv-x="897" d="M406 1200l241 334l172 -76l-311 -313z" />
<glyph unicode="&#xb5;" horiz-adv-x="1849" d="M102 786l832 813l813 -813l-322 -313l-272 326v-799h-463v799l-268 -326z" />
<glyph unicode="&#xb8;" horiz-adv-x="1077" d="M428 -420l195 301l151 -61l-231 -297z" />
<glyph unicode="&#xba;" horiz-adv-x="1857" d="M106 813l322 315l272 -327v798h463v-798l269 327l319 -315l-831 -813z" />
<glyph unicode="&#xbb;" horiz-adv-x="1130" d="M47 154l272 338l-272 348l107 84l344 -432l-344 -424zM389 154l275 338l-275 348l107 84l344 -432l-344 -424z" />
<glyph unicode="&#xbf;" horiz-adv-x="1157" d="M37 -20q0 90 39 170q60 124 207 169l39 13v274h165v-393q-103 0 -159 -36q-21 -13 -35 -25.5t-16.5 -13.5t-22.5 -20q-51 -52 -51 -141t57 -146.5t146.5 -57.5t146.5 55t57 141q0 32 -14 97h166l4 -31q4 -18 4 -35v-43q0 -148 -104.5 -245t-264.5 -97q-157 0 -260 105 q-104 105 -104 260zM289 1077q0 47 33.5 81t80.5 34t80 -34t33 -82t-32.5 -80.5t-79.5 -32.5t-81 33.5t-34 80.5z" />
<glyph unicode="&#xc0;" horiz-adv-x="1425" d="M16 4l650 1477l-52 121h183l221 -517h-72l463 -1081h-186l-181 432h-655l-184 -432h-187zM457 596h518l-256 614z" />
<glyph unicode="&#xc1;" horiz-adv-x="1429" d="M16 0l707 1610l690 -1610h-188l-181 434h-657l-184 -434h-187zM457 594h520l-256 616zM627 1735l291 297l161 -103l-354 -268z" />
<glyph unicode="&#xc2;" horiz-adv-x="1427" d="M16 2l476 1083h-37l217 514h100l209 -514h-35l465 -1083h-188l-181 434h-655l-184 -434h-187zM457 594h518l-256 616z" />
<glyph unicode="&#xc3;" horiz-adv-x="1429" d="M16 0l707 1610l690 -1610h-188l-181 434h-657l-184 -434h-187zM356 1774q14 23 22.5 37t15.5 24t14.5 18.5t25 29t56 37.5t76.5 17q73 0 165 -47q31 -14 51.5 -24.5t34.5 -14.5q28 -8 53 -8q50 0 103 99l100 -82q-74 -166 -219 -166q-51 0 -87 16t-102.5 46t-102.5 30 t-57.5 -21.5t-45.5 -74.5zM457 594h520l-256 616z" />
<glyph unicode="&#xc4;" horiz-adv-x="1429" d="M16 0l707 1610l690 -1610h-188l-181 434h-657l-184 -434h-187zM393 1807q0 48 34 83t83 35t84 -35t35 -83t-35 -82.5t-83 -34.5t-83 34.5t-35 82.5zM457 594h520l-256 616zM831 1807q0 48 34 83t83 35t83 -35t34 -83t-34 -82.5t-82 -34.5t-83 34.5t-35 82.5z" />
<glyph unicode="&#xc5;" horiz-adv-x="1429" d="M16 0l707 1610l690 -1610h-188l-181 434h-657l-184 -434h-187zM457 594h520l-256 616zM524 1888q0 82 57.5 140.5t142.5 58.5t143.5 -58.5t58.5 -142.5t-58.5 -142t-142.5 -58t-141 58q-60 62 -60 144zM629 1887q0 -40 27.5 -68.5t68.5 -28.5t68.5 27.5t27.5 68.5 t-27.5 68.5t-68.5 27.5t-68.5 -27.5t-27.5 -67.5z" />
<glyph unicode="&#xc6;" horiz-adv-x="2039" d="M16 0l682 1536h674l68 -160h-619l191 -458h606l68 -160h-605l248 -598h625l69 -160h-802l-181 430h-653l-184 -430h-187zM461 588h512l-256 606z" />
<glyph unicode="&#xc7;" horiz-adv-x="1423" d="M14 775.5q0 154.5 63.5 300t173 254t257 171t313.5 62.5q154 0 293 -64q67 -28 105.5 -50.5t45.5 -33t7 -37.5v-153q0 -31 -25 -6q-64 76 -193 129t-251.5 53t-235 -50.5t-196.5 -137.5t-133.5 -203.5t-49.5 -246.5t49.5 -245t134.5 -200q185 -185 439 -185 q189 0 369 121q20 14 33 26t23 18t14.5 12.5t13 6.5t8.5 -14v-168q0 -13 -10 -21q-23 -17 -83 -49q-147 -80 -300 -90v-122h-197v137q-137 16 -259 84.5t-212 173t-143.5 239t-53.5 289z" />
<glyph unicode="&#xc8;" horiz-adv-x="1048" d="M162 0v1536h133l-23 63h527l24 -63h133v-160h-622v-456h606v-160h-606v-600h622v-160h-794z" />
<glyph unicode="&#xc9;" horiz-adv-x="1048" d="M162 0v1536h133l22 63h529l-23 -63h133v-160h-622v-456h606v-160h-606v-600h622v-160h-794z" />
<glyph unicode="&#xca;" horiz-adv-x="1048" d="M162 0v1536h133l22 63h482l24 -63h133v-160h-622v-456h606v-160h-606v-600h622v-160h-794z" />
<glyph unicode="&#xcb;" horiz-adv-x="794" d="M-4 2v1534h127v63h207v-63h127v63h207v-63h127v-160h-623v-454h606v-160h-606v-600h623v-160h-795z" />
<glyph unicode="&#xcc;" horiz-adv-x="632" d="M-35 1929l162 103l291 -297l-101 -74zM227 0v1536h172v-1536h-172z" />
<glyph unicode="&#xcd;" horiz-adv-x="604" d="M154 0v1278h172v-1278h-172zM154 1364v172h172v-172h-172z" />
<glyph unicode="&#xce;" horiz-adv-x="313" d="M0 1468l51 129h209l53 -129h-313zM70 0h172v1405h-172v-1405z" />
<glyph unicode="&#xcf;" horiz-adv-x="321" d="M0 1473v126h129v-126h-129zM76 2h172v1405h-172v-1405zM193 1473v126h129v-126h-129z" />
<glyph unicode="&#xd0;" />
<glyph unicode="&#xd1;" horiz-adv-x="1765" d="M162 0v1599l1196 -1253v1190h172v-1606l-1196 1254v-1184h-172zM967 1536h231v-338z" />
<glyph unicode="&#xd2;" horiz-adv-x="1826" d="M92 756q0 164 62.5 311t170 258t253 174.5t310.5 63.5t311.5 -62.5t256 -171t173 -254t63.5 -308.5t-63.5 -307.5t-172 -253t-254 -171t-309.5 -62.5t-309.5 62.5t-255 168t-173 247t-63.5 305.5zM266 774q0 -267 181 -454q182 -187 440 -187q262 0 446 184 q86 86 135.5 202t49.5 248t-49.5 247.5t-133.5 202t-198.5 135.5t-243.5 49q-259 0 -442 -185q-185 -186 -185 -442zM543 1929l162 103l290 -297l-98 -74z" />
<glyph unicode="&#xd3;" horiz-adv-x="1826" d="M92 756q0 164 62.5 311t170 258t253 174.5t310.5 63.5t311.5 -62.5t256 -171t173 -254t63.5 -308.5t-63.5 -307.5t-172 -253t-254 -171t-309.5 -62.5t-309.5 62.5t-255 168t-173 247t-63.5 305.5zM266 774q0 -267 181 -454q182 -187 440 -187q262 0 446 184 q86 86 135.5 202t49.5 248t-49.5 247.5t-133.5 202t-198.5 135.5t-243.5 49q-259 0 -442 -185q-185 -186 -185 -442zM803 1735l291 297l161 -103l-352 -268z" />
<glyph unicode="&#xd4;" horiz-adv-x="1783" d="M98 752q0 221 108.5 407t291.5 295l30 78q168 88 324 88h78q168 0 344 -94l29 -78q178 -109 284.5 -290t106.5 -392q0 -326 -236 -558t-562.5 -232.5t-561.5 229.5q-236 229 -236 547zM272.5 770q-0.5 -262 180.5 -448q180 -187 441 -187t443 184t183 447 q0 262 -181.5 447t-440.5 185.5t-442 -183t-183.5 -445.5z" />
<glyph unicode="&#xd5;" horiz-adv-x="1826" d="M92 756q0 164 62.5 311t170 258t253 174.5t310.5 63.5t311.5 -62.5t256 -171t173 -254t63.5 -308.5t-63.5 -307.5t-172 -253t-254 -171t-309.5 -62.5t-309.5 62.5t-255 168t-173 247t-63.5 305.5zM266 774q0 -267 181 -454q182 -187 440 -187q262 0 446 184 q86 86 135.5 202t49.5 248t-49.5 247.5t-133.5 202t-198.5 135.5t-243.5 49q-259 0 -442 -185q-185 -186 -185 -442zM535 1774q23 45 41 66.5t26 31.5q59 66 146 65q69 0 161 -47q31 -14 51.5 -24.5t35.5 -14.5q29 -8 53 -8q49 0 102 99l98 -82q-74 -166 -219 -166 q-49 0 -85 16t-80 35q-95 41 -128 41t-55.5 -21.5t-46.5 -74.5z" />
<glyph unicode="&#xd6;" horiz-adv-x="1826" d="M92 756q0 164 62.5 311t170 258t253 174.5t310.5 63.5t311.5 -62.5t256 -171t173 -254t63.5 -308.5t-63.5 -307.5t-172 -253t-254 -171t-309.5 -62.5t-309.5 62.5t-255 168t-173 247t-63.5 305.5zM266 774q0 -267 181 -454q182 -187 440 -187q262 0 446 184 q86 86 135.5 202t49.5 248t-49.5 247.5t-133.5 202t-198.5 135.5t-243.5 49q-259 0 -442 -185q-185 -186 -185 -442zM555 1807q0 48 35 83t83 35t83 -35t35 -83t-35 -82.5t-83 -34.5t-83 34.5t-35 82.5zM993 1807q0 48 34 83t83 35t84 -35t35 -83t-35 -82.5t-83 -34.5 t-83 34.5t-35 82.5z" />
<glyph unicode="&#xd8;" horiz-adv-x="1335" d="M150 0v1536h698v-160h-526v-456h509v-160h-509v-760h-172zM711 90q0 47 32.5 81t80.5 34t81 -33t33 -81t-33 -81t-80 -33t-80.5 33t-33.5 80z" />
<glyph unicode="&#xd9;" horiz-adv-x="1415" d="M162 549v987h172v-942q0 -215 48 -292t138 -124t164 -47t123 12.5t92 34.5q96 51 133 119q51 82 51 297v942h78v66h174v-517h-80v-536q0 -236 -100 -367q-76 -98 -193.5 -154.5t-250.5 -56.5t-253 56.5t-196 154.5q-100 131 -100 367z" />
<glyph unicode="&#xda;" horiz-adv-x="1415" d="M162 549v987h172v-942q0 -177 26 -244q44 -109 160 -170q90 -47 189 -47q98 0 188 47q149 78 176 230q10 56 10 184v942h172v-987q0 -127 -22.5 -210t-88 -168t-184 -141.5t-251.5 -56.5t-252 57q-263 124 -290 403q-5 52 -5 116zM621 1735l290 297l162 -103l-352 -268z " />
<glyph unicode="&#xdb;" horiz-adv-x="1415" d="M162 557v858h172v-813q0 -215 51 -297q44 -71 135 -118.5t189 -47.5t189 47t139 124t48 292v813h172v-858q0 -236 -100 -367q-76 -98 -194.5 -154t-251.5 -56t-253 56t-196 154q-100 131 -100 367zM385 1481l35 129h563l53 -129h-651z" />
<glyph unicode="&#xdc;" horiz-adv-x="1415" d="M166 557v860h172v-815q0 -215 48 -292t138 -124t164 -47t123 12.5t92 34.5q96 51 133 119q53 84 54 297v815h172v-860q0 -236 -101 -367q-76 -98 -194.5 -154t-251.5 -56t-253 56t-196 154q-100 131 -100 367zM166 1481v129h172v-129h-172zM1090 1481v129h172v-129h-172z " />
<glyph unicode="&#xdd;" />
<glyph unicode="&#xde;" />
<glyph unicode="&#xdf;" horiz-adv-x="1298" d="M162 805v151h90v320q0 193 88 299q51 59 135 95t175 36t163 -28.5t125 -79.5q113 -110 113 -275q0 -205 -172 -297q154 -57 240.5 -189t86.5 -302q0 -231 -164 -389q-165 -159 -419 -173v160q184 12 303 125q114 109 114 283q0 102 -48 190q-72 131 -228 181 q-35 10 -141 24v147q66 4 99.5 13.5t71 38t63.5 82t26 112.5q0 100 -64.5 165t-151 65t-142.5 -32t-75 -76q-34 -76 -34 -251v-1200h-164v805h-90z" />
<glyph unicode="&#xe0;" horiz-adv-x="1165" d="M84 475q0 212 129 351q130 139 330 139q104 0 183 -37t151 -119v133h163v-942h-163v131q-72 -84 -150 -121t-180 -37t-186.5 38t-145.5 105q-131 142 -131 359zM248 1436l170 75l244 -327l-103 -58zM252 477q0 -155 89 -257q88 -101 226 -101q143 0 231 98q89 100 89 256 q0 155 -89 250q-90 96 -231 96q-135 0 -224 -97q-91 -100 -91 -245z" />
<glyph unicode="&#xe1;" horiz-adv-x="1165" d="M84 475q0 212 129 351q130 139 330 139q104 0 183 -37t151 -119v133h163v-942h-163v131q-72 -84 -150 -121t-180 -37t-186.5 38t-145.5 105q-131 142 -131 359zM252 477q0 -155 89 -257q88 -101 226 -101q143 0 231 98q89 100 89 256q0 155 -89 250q-90 96 -231 96 q-135 0 -224 -97q-91 -100 -91 -245zM494 1184l243 327l170 -75l-311 -310z" />
<glyph unicode="&#xe2;" horiz-adv-x="1165" d="M84 475q0 212 129 351q130 139 330 139q104 0 183 -37t151 -119v133h163v-942h-163v131q-72 -84 -150 -121t-180 -37t-186.5 38t-145.5 105q-131 142 -131 359zM244 1217l317 268l320 -268l-117 -91l-203 172l-203 -172zM252 477q0 -155 89 -257q88 -101 226 -101 q143 0 231 98q89 100 89 256q0 155 -89 250q-90 96 -231 96q-135 0 -224 -97q-91 -100 -91 -245z" />
<glyph unicode="&#xe3;" horiz-adv-x="1165" d="M84 475q0 212 129 351q130 139 330 139q104 0 183 -37t151 -119v133h163v-942h-163v131q-72 -84 -150 -121t-180 -37t-186.5 38t-145.5 105q-131 142 -131 359zM207 1206q42 69 68 96q60 62 143 62q59 0 142.5 -38t106.5 -45t50 -7q54 0 104 94l97 -78 q-72 -160 -216 -160q-48 0 -85 16.5t-81 35.5q-90 39 -125.5 39t-58 -20.5t-47.5 -74.5zM252 477q0 -155 89 -257q88 -101 226 -101q143 0 231 98q89 100 89 256q0 155 -89 250q-90 96 -231 96q-135 0 -224 -97q-91 -100 -91 -245z" />
<glyph unicode="&#xe4;" horiz-adv-x="1165" d="M84 475q0 212 129 351q130 139 330 139q104 0 183 -37t151 -119v133h163v-942h-163v131q-72 -84 -150 -121t-180 -37t-186.5 38t-145.5 105q-131 142 -131 359zM252 477q0 -155 89 -257q88 -101 226 -101q143 0 231 98q89 100 89 256q0 155 -89 250q-90 96 -231 96 q-135 0 -224 -97q-91 -100 -91 -245zM262 1247q0 47 34 81t81 34t82 -33t35 -80t-35 -80.5t-82 -33.5t-81 32.5t-34 79.5zM662 1247q0 47 33.5 81t81.5 34t83 -33t35 -80t-35 -80.5t-82 -33.5t-81.5 32.5t-34.5 79.5z" />
<glyph unicode="&#xe5;" horiz-adv-x="1165" d="M84 475q0 212 129 351q130 139 330 139q104 0 183 -37t151 -119v133h163v-942h-163v131q-72 -84 -150 -121t-180 -37t-186.5 38t-145.5 105q-131 142 -131 359zM252 477q0 -155 89 -257q88 -101 226 -101q143 0 231 98q89 100 89 256q0 155 -89 250q-90 96 -231 96 q-135 0 -224 -97q-91 -100 -91 -245zM365 1320.5q0 82.5 57 140t141 57.5q82 0 139.5 -57.5t57.5 -138.5t-57.5 -138.5t-141.5 -57.5q-77 0 -138 58q-58 54 -58 136.5zM465 1324q0 -40 28.5 -67.5t69.5 -27.5t68.5 27.5t27.5 67.5t-28.5 66.5t-68.5 26.5t-68.5 -26.5 t-28.5 -66.5z" />
<glyph unicode="&#xe6;" horiz-adv-x="1796" d="M84 276q0 139 110 227q108 87 285 87q84 0 143.5 -16.5t131.5 -63.5q-2 160 -66.5 234.5t-196.5 74.5t-303 -57v151q179 52 305 52t219 -49.5t134 -141.5q55 90 153.5 140.5t210 50.5t195.5 -36t143 -103q123 -136 123 -369v-21h-747q10 -143 92 -230t211 -87 q154 0 248 129q16 22 45 69l141 -79q-86 -139 -189.5 -202t-244.5 -63q-242 0 -373 189q-63 -102 -147 -145.5t-194.5 -43.5t-186.5 21.5t-130 61.5q-112 84 -112 220zM246 281.5q0 -72.5 66.5 -117.5t178 -45t183 47t71.5 119t-69.5 114.5t-179.5 42.5q-111 0 -180.5 -44 t-69.5 -116.5zM936 575h561q-23 115 -96.5 179.5t-165.5 64.5q-204 0 -279 -174q-10 -22 -20 -70z" />
<glyph unicode="&#xe7;" horiz-adv-x="1030" d="M84 451.5q0 119.5 39 211t109 157.5q151 145 362 145q163 0 297 -91v-212q-37 41 -76 74.5t-99.5 57t-129 23.5t-131 -26.5t-107.5 -73.5q-96 -100 -96 -248q0 -149 95 -250q94 -100 239 -100q95 0 188 52q47 27 123 114v-213q-123 -87 -238 -99v-79h-167v92 q-228 39 -342 232q-66 114 -66 233.5z" />
<glyph unicode="&#xe8;" horiz-adv-x="1087" d="M84 467q0 220 129 359q130 139 334 139q206 0 331 -137q126 -136 126 -359v-33h-746q6 -143 89 -230t214 -87t227 100q16 18 34 45l34 51l137 -75q-35 -59 -57.5 -89t-58.5 -61q-133 -117 -322 -117q-212 0 -340 137q-131 141 -131 357zM229 1436l170 75l244 -327 l-102 -58zM268 573h563q-23 111 -99.5 177.5t-180.5 66.5q-164 0 -247 -145q-25 -45 -36 -99z" />
<glyph unicode="&#xe9;" horiz-adv-x="1087" d="M84 467q0 220 129 359q130 139 334 139q206 0 331 -137q126 -136 126 -359v-33h-746q6 -143 89 -230t214 -87t227 100q16 18 34 45l34 51l137 -75q-35 -59 -57.5 -89t-58.5 -61q-133 -117 -322 -117q-212 0 -340 137q-131 141 -131 357zM268 573h563q-23 111 -99.5 177.5 t-180.5 66.5q-164 0 -247 -145q-25 -45 -36 -99zM444 1184l244 327l170 -75l-311 -310z" />
<glyph unicode="&#xea;" horiz-adv-x="1087" d="M84 467q0 220 129 359q130 139 334 139q206 0 331 -137q126 -136 126 -359v-33h-746q6 -143 89 -230t214 -87t227 100q16 18 34 45l34 51l137 -75q-35 -59 -57.5 -89t-58.5 -61q-133 -117 -322 -117q-212 0 -340 137q-131 141 -131 357zM225 1217l318 268l319 -268 l-117 -91l-202 172l-203 -172zM268 573h563q-23 111 -99.5 177.5t-180.5 66.5q-164 0 -247 -145q-25 -45 -36 -99z" />
<glyph unicode="&#xeb;" horiz-adv-x="1087" d="M84 467q0 220 129 359q130 139 334 139q206 0 331 -137q126 -136 126 -359v-33h-746q6 -143 89 -230t214 -87t227 100q16 18 34 45l34 51l137 -75q-35 -59 -57.5 -89t-58.5 -61q-133 -117 -322 -117q-212 0 -340 137q-131 141 -131 357zM227 1247q0 47 34 81t82 34 t82 -33t34 -80t-34 -80.5t-81 -33.5t-82 32.5t-35 79.5zM268 573h563q-23 111 -99.5 177.5t-180.5 66.5q-164 0 -247 -145q-25 -45 -36 -99zM629 1247q0 47 33.5 81t81.5 34t82 -33t34 -80t-33.5 -80.5t-82 -33.5t-82 32.5t-33.5 79.5z" />
<glyph unicode="&#xec;" horiz-adv-x="583" d="M-45 1436l170 75l244 -327l-103 -58zM188 0v942h164v-942h-164z" />
<glyph unicode="&#xed;" horiz-adv-x="583" d="M125 1184l244 327l170 -75l-312 -310zM143 0v942h164v-942h-164z" />
<glyph unicode="&#xee;" horiz-adv-x="653" d="M-68 1217l318 268l321 -268l-118 -91l-203 172l-201 -172zM170 0v942h164v-942h-164z" />
<glyph unicode="&#xef;" horiz-adv-x="493" d="M-127 1247q0 47 34 81t82 34t81.5 -33t33.5 -80t-33.5 -80.5t-81.5 -33.5t-82 32.5t-34 79.5zM68 0v942h165v-942h-165zM197 1247q0 47 33.5 81t81.5 34t82 -33t34 -80t-34 -80.5t-82 -33.5t-81.5 32.5t-33.5 79.5z" />
<glyph unicode="&#xf0;" />
<glyph unicode="&#xf1;" horiz-adv-x="1212" d="M125 0v942h166v-115q61 78 122.5 108t149.5 30t162 -35t108 -86t47 -109.5t13 -150.5v-584h-166v557q0 76 -6 115t-25 69q-49 78 -172 78t-178 -82t-55 -266v-471h-166zM154 1206q28 46 37.5 58t15.5 20t23.5 26.5t55.5 36t76 17.5q63 0 145 -37q119 -53 151 -53 t56.5 20.5t53.5 73.5l96 -78q-72 -160 -215 -160q-49 0 -86 16.5t-81 35.5q-89 39 -125 39t-58.5 -20.5t-46.5 -74.5z" />
<glyph unicode="&#xf2;" horiz-adv-x="1179" d="M84 461q0 213 145.5 358.5t356.5 145.5q218 0 364 -143q146 -145 146 -353t-146 -353q-146 -143 -360 -143q-211 0 -358 143q-148 144 -148 345zM252 473q0 -156 94 -254q96 -100 240 -100q151 0 246 98q96 100 96 252q0 153 -96 251q-96 97 -244 97q-145 0 -240 -97 q-96 -98 -96 -247zM276 1436l170 75l242 -327l-102 -58z" />
<glyph unicode="&#xf3;" horiz-adv-x="1179" d="M84 461q0 213 145.5 358.5t356.5 145.5q218 0 364 -143q146 -145 146 -353t-146 -353q-146 -143 -360 -143q-211 0 -358 143q-148 144 -148 345zM252 473q0 -156 94 -254q96 -100 240 -100q151 0 246 98q96 100 96 252q0 153 -96 251q-96 97 -244 97q-145 0 -240 -97 q-96 -98 -96 -247zM492 1184l241 327l170 -75l-309 -310z" />
<glyph unicode="&#xf4;" horiz-adv-x="1179" d="M84 461q0 213 145.5 358.5t356.5 145.5q218 0 364 -143q146 -145 146 -353t-146 -353q-146 -143 -360 -143q-211 0 -358 143q-148 144 -148 345zM252 473q0 -156 94 -254q96 -100 240 -100q151 0 246 98q96 100 96 252q0 153 -96 251q-96 97 -244 97q-145 0 -240 -97 q-96 -98 -96 -247zM270 1217l318 268l321 -268l-118 -91l-203 172l-201 -172z" />
<glyph unicode="&#xf5;" horiz-adv-x="1179" d="M84 461q0 213 145.5 358.5t356.5 145.5q218 0 364 -143q146 -145 146 -353t-146 -353q-146 -143 -360 -143q-211 0 -358 143q-148 144 -148 345zM233 1206q49 73 73 98q57 60 140 60q61 0 127 -29.5t86.5 -39t34.5 -13.5q27 -8 52 -8q53 0 104 94l96 -78 q-74 -160 -217 -160q-50 0 -85.5 16.5t-79.5 35.5q-90 39 -126.5 39t-59 -20.5t-46.5 -74.5zM252 473q0 -156 94 -254q96 -100 240 -100q151 0 246 98q96 100 96 252q0 153 -96 251q-96 97 -244 97q-145 0 -240 -97q-96 -98 -96 -247z" />
<glyph unicode="&#xf6;" horiz-adv-x="1179" d="M84 461q0 213 145.5 358.5t356.5 145.5q218 0 364 -143q146 -145 146 -353t-146 -353q-146 -143 -360 -143q-211 0 -358 143q-148 144 -148 345zM252 473q0 -156 94 -254q96 -100 240 -100q151 0 246 98q96 100 96 252q0 153 -96 251q-96 97 -244 97q-145 0 -240 -97 q-96 -98 -96 -247zM274 1247q0 47 34 81t81 34t82 -33t35 -80t-35 -80.5t-82 -33.5t-81 32.5t-34 79.5zM674 1247q0 47 33.5 81t82 34t83 -33t34.5 -80t-34.5 -80.5t-81.5 -33.5t-82 32.5t-35 79.5z" />
<glyph unicode="&#xf7;" horiz-adv-x="1865" d="M205 717v164h1444v-164h-1444zM823 438q0 47 33 81t80 34t80 -33t33 -80t-33 -80.5t-80 -33.5t-80 32.5t-33 79.5zM825 1159q0 47 33 80t80 33t80 -33t33 -80t-33 -81t-80 -34t-80 34t-33 81z" />
<glyph unicode="&#xf8;" horiz-adv-x="3041" d="M162 0v1599l1192 -1253v1190h174v-1606l-1196 1254v-1184h-170zM1628 475q0 209 145.5 354.5t354.5 145.5q218 0 364 -143q146 -145 146 -358q0 -105 -39 -197.5t-107 -160.5q-148 -145 -360 -145q-213 0 -358.5 145.5t-145.5 358.5zM1794 473q0 -152 95 -251t241 -99 q148 0 243 99t95 254q0 77 -25.5 141.5t-69.5 110.5q-95 99 -241 99q-149 0 -243 -100q-95 -101 -95 -254zM2654 91q0 48 32 81t80 33t80.5 -33t32.5 -81t-32.5 -81t-79.5 -33t-80 33t-33 81z" />
<glyph unicode="&#xf9;" horiz-adv-x="1011" d="M125 375v567h166v-549q0 -125 26.5 -173t76.5 -74.5t112 -26.5q61 0 110.5 26.5t69.5 63.5q35 65 35 184v549h164v-567q0 -106 -18.5 -169t-69.5 -119q-104 -114 -291 -114q-184 0 -293 117q-49 53 -68.5 115.5t-19.5 169.5zM190 1436l172 75l242 -327l-102 -58z" />
<glyph unicode="&#xfa;" horiz-adv-x="1011" d="M125 375v567h166v-549q0 -125 26.5 -173t76.5 -74.5t112 -26.5q61 0 110.5 26.5t69.5 63.5q35 65 35 184v549h164v-567q0 -106 -18.5 -169t-69.5 -119q-104 -114 -291 -114q-184 0 -293 117q-49 53 -68.5 115.5t-19.5 169.5zM406 1184l243 327l170 -75l-311 -310z" />
<glyph unicode="&#xfb;" horiz-adv-x="1011" d="M125 375v567h166v-549q0 -125 26.5 -173t76.5 -74.5t112 -26.5q61 0 110.5 26.5t69.5 63.5q35 65 35 184v549h164v-567q0 -106 -18.5 -169t-69.5 -119q-104 -114 -291 -114q-184 0 -293 117q-49 53 -68.5 115.5t-19.5 169.5zM186 1217l318 268l319 -268l-116 -91 l-203 172l-203 -172z" />
<glyph unicode="&#xfc;" horiz-adv-x="1011" d="M125 375v567h166v-549q0 -125 26.5 -173t76.5 -74.5t112 -26.5q61 0 110.5 26.5t69.5 63.5q35 65 35 184v549h164v-567q0 -106 -18.5 -169t-69.5 -119q-104 -114 -291 -114q-184 0 -293 117q-49 53 -68.5 115.5t-19.5 169.5zM188 1247q0 47 34 81t82 34t82 -33t34 -80 t-34 -80.5t-81 -33.5t-82 32.5t-35 79.5zM590 1247q0 47 33.5 81t82 34t82 -33t33.5 -80t-33.5 -80.5t-81.5 -33.5t-82 32.5t-34 79.5z" />
<glyph unicode="&#xfd;" />
<glyph unicode="&#xfe;" />
<glyph unicode="&#xff;" horiz-adv-x="1226" d="M0 956h190l336 -684l312 684h184l-707 -1495h-184l309 629zM195 1267q0 48 33.5 81.5t81.5 33.5t83 -33.5t35 -80.5t-35 -81t-82 -34t-81.5 33t-34.5 81zM596 1267q0 48 34 81.5t82 33.5t81.5 -33.5t33.5 -80.5t-33.5 -81t-80.5 -34t-82 33t-35 81z" />
<glyph unicode="&#x131;" horiz-adv-x="499" d="M154 0v1278h172v-1278h-172z" />
<glyph unicode="&#x152;" horiz-adv-x="2357" d="M92 767q0 165 62.5 309.5t171 252t253 170t310.5 62.5q331 0 539 -234q34 -39 77 -92v301h787v-160h-615v-456h598v-160h-598v-600h615v-160h-787v295q-92 -114 -129 -147q-199 -177 -483 -177q-166 0 -311.5 62.5t-254 171t-172 253t-63.5 309.5zM262 767 q0 -130 49 -244.5t134 -200.5t198 -136.5t241 -50.5t240.5 49t197.5 135.5t134 201t49 244.5t-49 245.5t-133 201.5t-196.5 136.5t-240.5 50.5t-242 -50.5t-199 -136.5t-134 -200.5t-49 -244.5z" />
<glyph unicode="&#x153;" horiz-adv-x="1937" d="M84 467q0 206 148 353q148 145 362 145q133 0 242.5 -60.5t169.5 -165.5q53 106 155.5 166t219 60t201.5 -35t146 -100q125 -133 125 -355v-35h-753q8 -141 94 -231t219 -90q94 0 164 49t125 154l139 -82q-69 -111 -123 -152q-133 -115 -315 -115q-129 0 -236.5 61.5 t-160.5 164.5q-68 -109 -177.5 -167.5t-228 -58.5t-210 39t-160.5 106q-146 142 -146 349zM252 471q0 -156 93 -253q95 -99 239 -99q150 0 245 97q97 99 97 250q0 77 -24.5 141.5t-69.5 111.5q-95 98 -244 98q-143 0 -240 -99q-96 -98 -96 -247zM1114 575h565 q-23 117 -95.5 179.5t-186.5 62.5q-221 0 -283 -242z" />
<glyph unicode="&#x178;" horiz-adv-x="1312" d="M-29 1536h199l391 -686l397 686h199l-512 -874v-662h-172v662zM229 1807q0 48 34 83t83 35t83 -35t34 -83t-34 -82.5t-82 -34.5t-83 34.5t-35 82.5zM666 1807q0 48 34.5 83t83.5 35t83 -35t34 -83t-35 -82.5t-82 -34.5t-82.5 34.5t-35.5 82.5z" />
<glyph unicode="&#x192;" horiz-adv-x="10323" d="M164 -516v2513h9996v-2513h-9996zM604 738.5q0 -183.5 60.5 -331t169.5 -253.5q231 -222 604 -222q207 0 325 72q16 10 20.5 18.5t8.5 40.5l41 283q2 14 2 20v11q0 18 -6 18t-17 -5q-64 -28 -170 -48t-180.5 -20t-150.5 31.5t-131 88.5q-117 121 -117 308q0 202 133 328 q136 126 346 126q90 0 186.5 -25.5t145.5 -56.5q67 -41 76.5 -41t12.5 6.5t9 38.5l51 256q7 28 7 38q0 15 -19 30q-100 66 -239.5 102.5t-306.5 36.5t-329.5 -63.5t-280.5 -177t-184.5 -270t-66.5 -340zM1917 14q0 -14 16 -14h398q37 0 49 25l102 211q12 24 41 24h500 q29 0 33 -27l53 -213q6 -20 29 -20h354q18 0 18 18v9l-305 1476q-8 33 -35 33h-473q-23 0 -30 -5t-17 -24l-729 -1474q-4 -12 -4 -19zM2644 610l203 463q8 14 12 14t8 -20l105 -436q4 -17 4 -22t-21 -5h-297q-14 0 -14 6zM3705 20q0 -14 6 -17t29 -3h342q31 0 32 29l123 876 q4 27 6 27t17 -21l502 -882q16 -29 49 -29h350q37 0 39 25l205 1482v6q0 23 -27 23h-362q-23 0 -30 -6t-11 -25l-111 -794q-4 -31 -10 -31t-19 22l-458 805q-10 20 -18.5 24.5t-31.5 4.5h-389q-31 0 -32 -27l-201 -1480v-9zM5378 8.5q0 -8.5 16 -8.5h394q33 0 43 23l110 215 q8 16 15.5 19t27.5 3h473q25 0 32 -5t11 -28l39 -198q6 -29 39 -29h350q25 0 25 13t-2 20l-309 1472q-4 20 -10.5 25.5t-26.5 5.5h-451q-20 0 -28.5 -5t-16.5 -22l-725 -1480q-6 -12 -6 -20.5zM6095 616q0 6 4 19l201 452q10 18 12 19q4 0 8 -19l98 -448l2 -21 q0 -14 -22 -14h-277q-27 0 -26 12zM7123 16q0 -16 18 -16h861q29 0 30 25l41 292v9q0 20 -20 20h-412q-25 0 -24 23v4l153 1136v9q0 18 -20 18h-387q-20 0 -27 -33l-213 -1476v-11zM8088 633q0 -27 24 -27h545q27 0 27 -31v-550q0 -25 22 -25h420q23 0 22 29v551 q0 16 5.5 21t21.5 5h508q23 0 22 25v418q0 27 -22 26h-514q-20 0 -21 29v473q0 20 -26 20h-418q-20 0 -20 -20v-473q0 -29 -25 -29h-549q-23 0 -22 -22v-420z" />
<glyph unicode="&#x2c6;" horiz-adv-x="1030" d="M123 1235l317 272l320 -272l-119 -90l-201 174l-202 -174z" />
<glyph unicode="&#x2c7;" horiz-adv-x="944" d="M123 1417l117 90l202 -174l203 174l115 -90l-318 -272z" />
<glyph unicode="&#x2d8;" horiz-adv-x="1026" d="M176 1421h139q33 -76 77 -107.5t118 -31.5t117 30.5t78 108.5h139q-25 -131 -113 -203.5t-221 -72.5t-221 73.5t-113 202.5z" />
<glyph unicode="&#x2d9;" horiz-adv-x="1042" d="M367 1273q0 50 34.5 86t84.5 36t86 -36t36 -86t-34.5 -85t-85 -35t-86 35t-35.5 85z" />
<glyph unicode="&#x2da;" horiz-adv-x="886" d="M260 1342q0 83 57.5 140.5t140.5 57.5t140 -57.5t57 -140.5t-57 -140t-141 -57q-79 0 -139 57q-58 57 -58 140zM360 1344.5q0 -39.5 29 -68.5t70 -29t68.5 27.5t27.5 68.5t-27.5 69t-68.5 28t-70 -28t-29 -67.5z" />
<glyph unicode="&#x2db;" horiz-adv-x="1077" d="M414 -238q0 109 102 192q21 17 64 46h131q-162 -115 -162 -207q0 -45 29.5 -70.5t71.5 -25.5q65 0 132 31l-20 -125q-72 -31 -147.5 -31t-138 54.5t-62.5 135.5z" />
<glyph unicode="&#x2dc;" horiz-adv-x="1167" d="M166 1225q24 39 35.5 54t17.5 23.5t23.5 28t55.5 36.5t76 17q66 0 147.5 -38t104.5 -46t50 -8q54 0 104 97l97 -78q-74 -164 -215 -164q-52 0 -87.5 16.5t-79.5 34.5q-96 41 -128.5 41t-55 -20.5t-47.5 -73.5z" />
<glyph unicode="&#x2dd;" horiz-adv-x="884" d="M240 1200l243 334l162 -74l-309 -313zM547 1200l244 334l161 -74l-309 -313z" />
<glyph unicode="&#x3c0;" horiz-adv-x="9152" d="M0 748q0 184 59.5 340.5t166 270.5t253 177t298 63t261 -34.5t203 -95t92.5 -78.5q0 -5 -4 -29l-14 -111v-8q-2 -27 -12 -26q-4 0 -29 29.5t-80 66.5t-120 63q-139 58 -275.5 58t-250.5 -51.5t-197 -143.5q-175 -194 -175 -496q0 -277 162 -441q161 -163 434 -163 q193 0 346 87q47 26 64.5 45.5t21.5 19.5t4 -10v-13l-20 -157q-2 -16 -8 -23.5t-62.5 -36t-160 -53.5t-238.5 -25t-273.5 56.5t-236.5 158.5q-209 219 -209 560zM1290 4l869 1659l481 -1659h-176l-121 436h-637l-229 -436h-187zM1788 600h504l-176 641zM2736 4l199 1630 l985 -1286l151 1219h172l-202 -1639l-985 1286l-150 -1210h-170zM4188 4l717 1638l702 -1638h-190l-184 442h-668l-188 -442h-189zM4635 608h530l-262 629zM5706 4v1563h174v-1399h430v-164h-604zM6406 381l168 47q23 -103 66 -161t109.5 -92t138.5 -34t129 24.5t99 65.5 q91 89 91 218q0 95 -57 161q-60 69 -207 133l-142 64q-170 78 -243.5 166t-73.5 217q0 172 126 288q124 115 314 115q264 0 402 -243l-138 -90q-53 81 -79 104q-78 66 -189 66q-109 0 -184 -69q-74 -68 -74 -157.5t50 -143.5t171 -108l148 -63q189 -83 272 -183 q82 -101 82 -249q0 -204 -143 -341q-145 -139 -343 -139t-323 104.5t-170 299.5zM7412 4l719 1638l702 -1638h-192l-183 442h-669l-187 -442h-190zM7860 608h529l-260 629zM8700 1405v162h930v-162h-379v-1401h-174v1401h-377z" />
<glyph unicode="&#x2000;" horiz-adv-x="1043" />
<glyph unicode="&#x2001;" horiz-adv-x="2087" />
<glyph unicode="&#x2002;" horiz-adv-x="1043" />
<glyph unicode="&#x2003;" horiz-adv-x="2087" />
<glyph unicode="&#x2004;" horiz-adv-x="695" />
<glyph unicode="&#x2005;" horiz-adv-x="521" />
<glyph unicode="&#x2006;" horiz-adv-x="347" />
<glyph unicode="&#x2007;" horiz-adv-x="347" />
<glyph unicode="&#x2008;" horiz-adv-x="260" />
<glyph unicode="&#x2009;" horiz-adv-x="417" />
<glyph unicode="&#x200a;" horiz-adv-x="115" />
<glyph unicode="&#x2013;" horiz-adv-x="1249" d="M145 418v147h768v-147h-768z" />
<glyph unicode="&#x2014;" horiz-adv-x="2412" d="M477 717v164h1444v-164h-1444z" />
<glyph unicode="&#x2018;" horiz-adv-x="356" d="M104 1536h148l-23 -530h-108z" />
<glyph unicode="&#x2019;" horiz-adv-x="356" d="M104 1534h148l-23 -530h-108z" />
<glyph unicode="&#x201a;" horiz-adv-x="686" d="M78 -301l190 532l150 -55l-232 -520z" />
<glyph unicode="&#x201c;" horiz-adv-x="696" d="M104 1536h150l-25 -532h-108zM440 1536h152l-27 -532h-108z" />
<glyph unicode="&#x201d;" horiz-adv-x="696" d="M104 1536h150l-25 -532h-108zM440 1536h152l-27 -532h-108z" />
<glyph unicode="&#x201e;" />
<glyph unicode="&#x2026;" horiz-adv-x="1888" d="M84 92q0 47 30.5 78t75.5 31t78 -32t33 -77t-32.5 -77.5t-78 -32.5t-76 31.5t-30.5 78.5zM592 92q0 47 29.5 78t75.5 31t78 -32t32 -77t-32 -77.5t-78 -32.5t-75.5 31.5t-29.5 78.5zM1098 92q0 47 30.5 78t75.5 31t78 -32t33 -77t-33 -77.5t-78 -32.5t-75.5 31.5 t-30.5 78.5z" />
<glyph unicode="&#x202f;" horiz-adv-x="417" />
<glyph unicode="&#x2030;" />
<glyph unicode="&#x2039;" horiz-adv-x="679" d="M63 492l345 432l108 -84l-274 -348l274 -338l-108 -86z" />
<glyph unicode="&#x203a;" horiz-adv-x="679" d="M92 154l275 338l-275 348l107 84l344 -432l-344 -424z" />
<glyph unicode="&#x2044;" />
<glyph unicode="&#x205f;" horiz-adv-x="521" />
<glyph unicode="&#x20ac;" horiz-adv-x="1652" d="M145 539v166h158q-6 65 4 167h-162v168h205q80 235 302 386q214 145 466 145q127 0 228.5 -39t205.5 -107l-22 -186q-189 168 -432 168q-181 0 -334 -103q-157 -105 -225 -264h966l-20 -168h-1000q-8 -41 -8 -82.5t2 -84.5h985l-20 -166h-926q61 -178 230 -297 q161 -113 354 -113q141 0 301 78l-23 -191q-278 -94 -534 -5q-244 85 -394 297q-75 106 -118 231h-189z" />
<glyph unicode="&#x2122;" horiz-adv-x="1675" d="M0 1432v104h530v-104h-208v-770h-113v770h-209zM612 662l152 931l330 -727l338 727l141 -931h-109l-80 591l-290 -637l-289 639l-84 -593h-109z" />
<glyph unicode="&#x2202;" horiz-adv-x="8017" d="M205 -512v2513h7813v-2513h-7813zM654 816q-13 -136 21 -272.5t91 -231.5t142 -168q181 -154 448 -185q131 -15 297 18q139 29 151 52q8 8 11.5 17t5.5 13l59 338v13q0 12 -4 15t-16 -3l-48 -20q-97 -50 -233 -60q-213 -9 -340 102q-88 74 -124 194t7 269q43 156 172 242 q104 70 250 84q130 6 289 -55q68 -27 123 -64q32 -16 37 -16q10 10 10 18l57 309q2 10 5 24.5t2 17.5q-2 7 -28.5 23.5t-48.5 27.5q-63 34 -99 45.5t-85 25t-114 22.5q-340 47 -610 -95q-142 -75 -236 -197q-164 -188 -192 -503zM1923 18q0 -10 4 -10l8 -4h432l9 4q6 0 6 5 t2 7l104 222q9 18 17 20q6 6 10 6h532q4 0 5 -2v-4l57 -237v-7q0 -8 12 -14h377q4 0 4 4q4 4 4 6v4l-319 1502q-8 12 -15 12h-493l-10 -10l-744 -1497q-2 -4 -2 -7zM2673 606l2 6v4l209 471l4 5q2 0 2 -2v-3l104 -473q2 -2 2 -5t-2 -5h-313zM3629 29q0 -11 12 -23q2 -2 4 -2 h383l9 4l2 8v4l131 920v4q0 2 3 2t7 -4l526 -938l4 -2h398q10 5 10 12v4l217 1502v2q0 6 -6 6h-408q-8 0 -8 -4v-4l-119 -830q0 -18 -10 -18q-6 -6 -10 4l-479 844q0 8 -13 8h-428q-14 0 -14 -10v-5zM5284 18q0 -14 10 -14h395q4 0 8.5 5t8.5 9l96 240q4 10 16 10h521 q14 0 18 -10l92 -240q4 -4 8 -9t9 -5h397q6 0 9 5t-1 9l-565 1508q-6 10 -17 10h-409q-12 0 -19 -10zM5919 586l162 461q0 10 6 0l153 -461q6 -8 -6 -8h-307q-10 0 -8 8zM6973 20q0 -16 13 -16h872q16 0 17 16v359q0 14 -17 14h-420q-10 0 -10 13v1138q0 14 -16 15h-426 q-12 0 -13 -15v-1524z" />
<glyph unicode="&#x2206;" horiz-adv-x="8017" d="M205 -512v2513h7813v-2513h-7813zM654 816q-13 -136 21 -272.5t91 -231.5t142 -168q181 -154 448 -185q131 -15 297 18q139 29 151 52q8 8 11.5 17t5.5 13l59 338v13q0 12 -4 15t-16 -3l-48 -20q-97 -50 -233 -60q-213 -9 -340 102q-88 74 -124 194t7 269q43 156 172 242 q104 70 250 84q130 6 289 -55q68 -27 123 -64q32 -16 37 -16q10 10 10 18l57 309q2 10 5 24.5t2 17.5q-2 7 -28.5 23.5t-48.5 27.5q-63 34 -99 45.5t-85 25t-114 22.5q-340 47 -610 -95q-142 -75 -236 -197q-164 -188 -192 -503zM1923 18q0 -10 4 -10l8 -4h432l9 4q6 0 6 5 t2 7l104 222q9 18 17 20q6 6 10 6h532q4 0 5 -2v-4l57 -237v-7q0 -8 12 -14h377q4 0 4 4q4 4 4 6v4l-319 1502q-8 12 -15 12h-493l-10 -10l-744 -1497q-2 -4 -2 -7zM2673 606l2 6v4l209 471l4 5q2 0 2 -2v-3l104 -473q2 -2 2 -5t-2 -5h-313zM3629 29q0 -11 12 -23q2 -2 4 -2 h383l9 4l2 8v4l131 920v4q0 2 3 2t7 -4l526 -938l4 -2h398q10 5 10 12v4l217 1502v2q0 6 -6 6h-408q-8 0 -8 -4v-4l-119 -830q0 -18 -10 -18q-6 -6 -10 4l-479 844q0 8 -13 8h-428q-14 0 -14 -10v-5zM5284 18q0 -14 10 -14h395q4 0 8.5 5t8.5 9l96 240q4 10 16 10h521 q14 0 18 -10l92 -240q4 -4 8 -9t9 -5h397q6 0 9 5t-1 9l-565 1508q-6 10 -17 10h-409q-12 0 -19 -10zM5919 586l162 461q0 10 6 0l153 -461q6 -8 -6 -8h-307q-10 0 -8 8zM6973 20q0 -16 13 -16h872q16 0 17 16v359q0 14 -17 14h-420q-10 0 -10 13v1138q0 14 -16 15h-426 q-12 0 -13 -15v-1524z" />
<glyph unicode="&#x220f;" horiz-adv-x="9152" d="M0 748q0 184 59.5 340.5t166 270.5t253 177t298 63t261 -34.5t203 -95t92.5 -78.5q0 -5 -4 -29l-14 -111v-8q-2 -27 -12 -26q-4 0 -29 29.5t-80 66.5t-120 63q-139 58 -275.5 58t-250.5 -51.5t-197 -143.5q-175 -194 -175 -496q0 -277 162 -441q161 -163 434 -163 q193 0 346 87q47 26 64.5 45.5t21.5 19.5t4 -10v-13l-20 -157q-2 -16 -8 -23.5t-62.5 -36t-160 -53.5t-238.5 -25t-273.5 56.5t-236.5 158.5q-209 219 -209 560zM1290 4l869 1659l481 -1659h-176l-121 436h-637l-229 -436h-187zM1788 600h504l-176 641zM2736 4l199 1630 l985 -1286l151 1219h172l-202 -1639l-985 1286l-150 -1210h-170zM4188 4l717 1638l702 -1638h-190l-184 442h-668l-188 -442h-189zM4635 608h530l-262 629zM5706 4v1563h174v-1399h430v-164h-604zM6406 381l168 47q23 -103 66 -161t109.5 -92t138.5 -34t129 24.5t99 65.5 q91 89 91 218q0 95 -57 161q-60 69 -207 133l-142 64q-170 78 -243.5 166t-73.5 217q0 172 126 288q124 115 314 115q264 0 402 -243l-138 -90q-53 81 -79 104q-78 66 -189 66q-109 0 -184 -69q-74 -68 -74 -157.5t50 -143.5t171 -108l148 -63q189 -83 272 -183 q82 -101 82 -249q0 -204 -143 -341q-145 -139 -343 -139t-323 104.5t-170 299.5zM7412 4l719 1638l702 -1638h-192l-183 442h-669l-187 -442h-190zM7860 608h529l-260 629zM8700 1405v162h930v-162h-379v-1401h-174v1401h-377z" />
<glyph unicode="&#x2211;" />
<glyph unicode="&#x221a;" />
<glyph unicode="&#x221e;" />
<glyph unicode="&#x222b;" />
<glyph unicode="&#x2248;" />
<glyph unicode="&#x2260;" />
<glyph unicode="&#x2264;" />
<glyph unicode="&#x2265;" horiz-adv-x="933" d="M53 1231q18 55 35 104l274 -100l-10 295h111l-12 -295q89 35 276 100l35 -104l-287 -80l184 -231l-88 -66l-163 246q-57 -90 -164 -246q-19 13 -88 66l184 231q-77 20 -287 80z" />
<glyph unicode="&#xe000;" horiz-adv-x="942" d="M0 0v942h942v-942h-942z" />
</font>
</defs>
</svg>
